<?xml version="1.0" standalone="no"?>
 <!DOCTYPE svg PUBLIC "-//W3C//DTD SVG 1.1//EN" 
 "http://www.w3.org/Graphics/SVG/1.1/DTD/svg11.dtd"> 
<svg xmlns="http://www.w3.org/2000/svg" version="1.1" 
    width="29.7002cm" height="21.0007cm" viewBox="0 0 116930 82680 ">
<title>SVG Picture created as OsEID_token-F.Cu.svg date 2016/10/04 08:11:52 </title>
  <desc>Picture generated by PCBNEW </desc>
<g style="fill:#000000; fill-opacity:1;stroke:#000000; stroke-opacity:1;
stroke-linecap:round; stroke-linejoin:round; "
 transform="translate(0 0) scale(1 1)">
</g>
<g style="fill:#000000; fill-opacity:0.0; 
stroke:#000000; stroke-width:-0.000393701; stroke-opacity:1; 
stroke-linecap:round; stroke-linejoin:round;">
</g>
<g style="fill:#000000; fill-opacity:0.0; 
stroke:#000000; stroke-width:39.3701; stroke-opacity:1; 
stroke-linecap:round; stroke-linejoin:round;">
<path d="M54437 40000
L54437 34330
" />
<path d="M67637 40000
L54437 40000
" />
<path d="M67637 34330
L67637 40000
" />
<path d="M54437 34330
L67637 34330
" />
</g>
<g style="fill:#000000; fill-opacity:0.0; 
stroke:#000000; stroke-width:0; stroke-opacity:1; 
stroke-linecap:round; stroke-linejoin:round;">
</g>
<g style="fill:#000000; fill-opacity:1.0; 
stroke:#000000; stroke-width:0; stroke-opacity:1; 
stroke-linecap:round; stroke-linejoin:round;">
<polyline style="fill-rule:evenodd;"
points="63500,39114
63500,39645
63340,39645
63340,39114
63500,39114
" /> 
<polyline style="fill-rule:evenodd;"
points="63815,39114
63815,39645
63655,39645
63655,39114
63815,39114
" /> 
<polyline style="fill-rule:evenodd;"
points="64130,39114
64130,39645
63970,39645
63970,39114
64130,39114
" /> 
<polyline style="fill-rule:evenodd;"
points="64445,39114
64445,39645
64285,39645
64285,39114
64445,39114
" /> 
<polyline style="fill-rule:evenodd;"
points="64760,39114
64760,39645
64600,39645
64600,39114
64760,39114
" /> 
<polyline style="fill-rule:evenodd;"
points="65075,39114
65075,39645
64915,39645
64915,39114
65075,39114
" /> 
<polyline style="fill-rule:evenodd;"
points="63185,39114
63185,39645
63025,39645
63025,39114
63185,39114
" /> 
<polyline style="fill-rule:evenodd;"
points="62870,39114
62870,39645
62710,39645
62710,39114
62870,39114
" /> 
<polyline style="fill-rule:evenodd;"
points="62555,39114
62555,39645
62395,39645
62395,39114
62555,39114
" /> 
<polyline style="fill-rule:evenodd;"
points="62240,39114
62240,39645
62080,39645
62080,39114
62240,39114
" /> 
<polyline style="fill-rule:evenodd;"
points="61925,39114
61925,39645
61765,39645
61765,39114
61925,39114
" /> 
<polyline style="fill-rule:evenodd;"
points="63500,34685
63500,35216
63340,35216
63340,34685
63500,34685
" /> 
<polyline style="fill-rule:evenodd;"
points="63815,34685
63815,35216
63655,35216
63655,34685
63815,34685
" /> 
<polyline style="fill-rule:evenodd;"
points="64130,34685
64130,35216
63970,35216
63970,34685
64130,34685
" /> 
<polyline style="fill-rule:evenodd;"
points="64445,34685
64445,35216
64285,35216
64285,34685
64445,34685
" /> 
<polyline style="fill-rule:evenodd;"
points="64760,34685
64760,35216
64600,35216
64600,34685
64760,34685
" /> 
<polyline style="fill-rule:evenodd;"
points="65075,34685
65075,35216
64915,35216
64915,34685
65075,34685
" /> 
<polyline style="fill-rule:evenodd;"
points="63185,34685
63185,35216
63025,35216
63025,34685
63185,34685
" /> 
<polyline style="fill-rule:evenodd;"
points="62870,34685
62870,35216
62710,35216
62710,34685
62870,34685
" /> 
<polyline style="fill-rule:evenodd;"
points="62555,34685
62555,35216
62395,35216
62395,34685
62555,34685
" /> 
<polyline style="fill-rule:evenodd;"
points="62240,34685
62240,35216
62080,35216
62080,34685
62240,34685
" /> 
<polyline style="fill-rule:evenodd;"
points="61925,34685
61925,35216
61765,35216
61765,34685
61925,34685
" /> 
<polyline style="fill-rule:evenodd;"
points="65936,37085
65936,37245
65404,37245
65404,37085
65936,37085
" /> 
<polyline style="fill-rule:evenodd;"
points="61436,37085
61436,37245
60904,37245
60904,37085
61436,37085
" /> 
<polyline style="fill-rule:evenodd;"
points="65936,36770
65936,36930
65404,36930
65404,36770
65936,36770
" /> 
<polyline style="fill-rule:evenodd;"
points="61436,36770
61436,36930
60904,36930
60904,36770
61436,36770
" /> 
<polyline style="fill-rule:evenodd;"
points="61436,36455
61436,36615
60904,36615
60904,36455
61436,36455
" /> 
<polyline style="fill-rule:evenodd;"
points="65936,36455
65936,36615
65404,36615
65404,36455
65936,36455
" /> 
<polyline style="fill-rule:evenodd;"
points="65936,36140
65936,36300
65404,36300
65404,36140
65936,36140
" /> 
<polyline style="fill-rule:evenodd;"
points="61436,36140
61436,36300
60904,36300
60904,36140
61436,36140
" /> 
<polyline style="fill-rule:evenodd;"
points="61436,35825
61436,35985
60904,35985
60904,35825
61436,35825
" /> 
<polyline style="fill-rule:evenodd;"
points="65936,35825
65936,35985
65404,35985
65404,35825
65936,35825
" /> 
<polyline style="fill-rule:evenodd;"
points="65936,35510
65936,35670
65404,35670
65404,35510
65936,35510
" /> 
<polyline style="fill-rule:evenodd;"
points="61436,35510
61436,35670
60904,35670
60904,35510
61436,35510
" /> 
<polyline style="fill-rule:evenodd;"
points="61436,37400
61436,37560
60904,37560
60904,37400
61436,37400
" /> 
<polyline style="fill-rule:evenodd;"
points="65936,37400
65936,37560
65404,37560
65404,37400
65936,37400
" /> 
<polyline style="fill-rule:evenodd;"
points="65936,37715
65936,37875
65404,37875
65404,37715
65936,37715
" /> 
<polyline style="fill-rule:evenodd;"
points="61436,37715
61436,37875
60904,37875
60904,37715
61436,37715
" /> 
<polyline style="fill-rule:evenodd;"
points="61436,38030
61436,38190
60904,38190
60904,38030
61436,38030
" /> 
<polyline style="fill-rule:evenodd;"
points="65936,38030
65936,38190
65404,38190
65404,38030
65936,38030
" /> 
<polyline style="fill-rule:evenodd;"
points="65936,38345
65936,38505
65404,38505
65404,38345
65936,38345
" /> 
<polyline style="fill-rule:evenodd;"
points="61436,38345
61436,38505
60904,38505
60904,38345
61436,38345
" /> 
<polyline style="fill-rule:evenodd;"
points="61436,38660
61436,38820
60904,38820
60904,38660
61436,38660
" /> 
<polyline style="fill-rule:evenodd;"
points="65936,38660
65936,38820
65404,38820
65404,38660
65936,38660
" /> 
<circle cx="56405" cy="35807.1" r="295.5" /> 
</g>
<g style="fill:#000000; fill-opacity:1.0; 
stroke:#000000; stroke-width:59.0551; stroke-opacity:1; 
stroke-linecap:round; stroke-linejoin:round;">
</g>
<g style="fill:#000000; fill-opacity:1.0; 
stroke:#000000; stroke-width:0; stroke-opacity:1; 
stroke-linecap:round; stroke-linejoin:round;">
<circle cx="56405" cy="36791.3" r="295.5" /> 
</g>
<g style="fill:#000000; fill-opacity:1.0; 
stroke:#000000; stroke-width:59.0551; stroke-opacity:1; 
stroke-linecap:round; stroke-linejoin:round;">
</g>
<g style="fill:#000000; fill-opacity:1.0; 
stroke:#000000; stroke-width:0; stroke-opacity:1; 
stroke-linecap:round; stroke-linejoin:round;">
<circle cx="56405" cy="37578.7" r="295.5" /> 
</g>
<g style="fill:#000000; fill-opacity:1.0; 
stroke:#000000; stroke-width:59.0551; stroke-opacity:1; 
stroke-linecap:round; stroke-linejoin:round;">
</g>
<g style="fill:#000000; fill-opacity:1.0; 
stroke:#000000; stroke-width:0; stroke-opacity:1; 
stroke-linecap:round; stroke-linejoin:round;">
<circle cx="56405" cy="38563" r="295.5" /> 
</g>
<g style="fill:#000000; fill-opacity:1.0; 
stroke:#000000; stroke-width:59.0551; stroke-opacity:1; 
stroke-linecap:round; stroke-linejoin:round;">
</g>
<g style="fill:#000000; fill-opacity:1.0; 
stroke:#000000; stroke-width:551.181; stroke-opacity:1; 
stroke-linecap:round; stroke-linejoin:round;">
</g>
<g style="fill:#000000; fill-opacity:0.0; 
stroke:#000000; stroke-width:551.181; stroke-opacity:1; 
stroke-linecap:round; stroke-linejoin:round;">
<path d="M55932 34881
L54987 34881
" />
<path d="M55932 39488
L54987 39488
" />
</g>
<g style="fill:#000000; fill-opacity:1.0; 
stroke:#000000; stroke-width:0; stroke-opacity:1; 
stroke-linecap:round; stroke-linejoin:round;">
<circle cx="55460.2" cy="36397.6" r="275.591" /> 
</g>
<g style="fill:#000000; fill-opacity:1.0; 
stroke:#000000; stroke-width:59.0551; stroke-opacity:1; 
stroke-linecap:round; stroke-linejoin:round;">
</g>
<g style="fill:#000000; fill-opacity:1.0; 
stroke:#000000; stroke-width:0; stroke-opacity:1; 
stroke-linecap:round; stroke-linejoin:round;">
<circle cx="55460.2" cy="37972.4" r="275.591" /> 
</g>
<g style="fill:#000000; fill-opacity:1.0; 
stroke:#000000; stroke-width:59.0551; stroke-opacity:1; 
stroke-linecap:round; stroke-linejoin:round;">
</g>
<g style="fill:#000000; fill-opacity:1.0; 
stroke:#000000; stroke-width:0; stroke-opacity:1; 
stroke-linecap:round; stroke-linejoin:round;">
<polyline style="fill-rule:evenodd;"
points="67511,37183
66111,37183
66111,36183
67511,36183
67511,37183
" /> 
<polyline style="fill-rule:evenodd;"
points="67511,35372
66111,35372
66111,34372
67511,34372
67511,35372
" /> 
<circle cx="58759.8" cy="39460.6" r="157.48" /> 
</g>
<g style="fill:#000000; fill-opacity:1.0; 
stroke:#000000; stroke-width:59.0551; stroke-opacity:1; 
stroke-linecap:round; stroke-linejoin:round;">
</g>
<g style="fill:#000000; fill-opacity:1.0; 
stroke:#000000; stroke-width:0; stroke-opacity:1; 
stroke-linecap:round; stroke-linejoin:round;">
<circle cx="59547.2" cy="39460.6" r="157.48" /> 
</g>
<g style="fill:#000000; fill-opacity:1.0; 
stroke:#000000; stroke-width:59.0551; stroke-opacity:1; 
stroke-linecap:round; stroke-linejoin:round;">
</g>
<g style="fill:#000000; fill-opacity:1.0; 
stroke:#000000; stroke-width:0; stroke-opacity:1; 
stroke-linecap:round; stroke-linejoin:round;">
<circle cx="60334.6" cy="39460.6" r="157.48" /> 
</g>
<g style="fill:#000000; fill-opacity:1.0; 
stroke:#000000; stroke-width:59.0551; stroke-opacity:1; 
stroke-linecap:round; stroke-linejoin:round;">
</g>
<g style="fill:#000000; fill-opacity:1.0; 
stroke:#000000; stroke-width:0; stroke-opacity:1; 
stroke-linecap:round; stroke-linejoin:round;">
<circle cx="61122" cy="39460.6" r="157.48" /> 
</g>
<g style="fill:#000000; fill-opacity:1.0; 
stroke:#000000; stroke-width:59.0551; stroke-opacity:1; 
stroke-linecap:round; stroke-linejoin:round;">
</g>
<g style="fill:#000000; fill-opacity:1.0; 
stroke:#000000; stroke-width:0; stroke-opacity:1; 
stroke-linecap:round; stroke-linejoin:round;">
<polyline style="fill-rule:evenodd;"
points="57168,36522
57562,36522
57562,36994
57168,36994
57168,36522
" /> 
<polyline style="fill-rule:evenodd;"
points="58112,37289
58506,37289
58506,37604
58112,37604
58112,37289
" /> 
<polyline style="fill-rule:evenodd;"
points="57168,37289
57562,37289
57562,37604
57168,37604
57168,37289
" /> 
<polyline style="fill-rule:evenodd;"
points="58112,36541
58506,36541
58506,36856
58112,36856
58112,36541
" /> 
<polyline style="fill-rule:evenodd;"
points="59065,35757
58671,35757
58671,35442
59065,35442
59065,35757
" /> 
<polyline style="fill-rule:evenodd;"
points="59931,35382
59537,35382
59537,35067
59931,35067
59931,35382
" /> 
<polyline style="fill-rule:evenodd;"
points="59931,36132
59537,36132
59537,35817
59931,35817
59931,36132
" /> 
<polyline style="fill-rule:evenodd;"
points="66182,39172
66182,38622
66532,38622
66532,39172
66182,39172
" /> 
<polyline style="fill-rule:evenodd;"
points="66932,39172
66932,38622
67282,38622
67282,39172
66932,39172
" /> 
<polyline style="fill-rule:evenodd;"
points="66182,38483
66182,37933
66532,37933
66532,38483
66182,38483
" /> 
<polyline style="fill-rule:evenodd;"
points="66932,38483
66932,37933
67282,37933
67282,38483
66932,38483
" /> 
<polyline style="fill-rule:evenodd;"
points="57575,38552
58125,38552
58125,38902
57575,38902
57575,38552
" /> 
<polyline style="fill-rule:evenodd;"
points="57575,39302
58125,39302
58125,39652
57575,39652
57575,39302
" /> 
<polyline style="fill-rule:evenodd;"
points="59682,38380
59682,38930
59332,38930
59332,38380
59682,38380
" /> 
<polyline style="fill-rule:evenodd;"
points="58932,38380
58932,38930
58582,38930
58582,38380
58932,38380
" /> 
<polyline style="fill-rule:evenodd;"
points="67341,37323
67341,37795
66869,37795
66869,37323
67341,37323
" /> 
<polyline style="fill-rule:evenodd;"
points="66515,37323
66515,37795
66043,37795
66043,37323
66515,37323
" /> 
<polyline style="fill-rule:evenodd;"
points="67341,39311
67341,39783
66869,39783
66869,39311
67341,39311
" /> 
<polyline style="fill-rule:evenodd;"
points="66515,39311
66515,39783
66043,39783
66043,39311
66515,39311
" /> 
<polyline style="fill-rule:evenodd;"
points="59940,36307
59940,36857
59590,36857
59590,36307
59940,36307
" /> 
<polyline style="fill-rule:evenodd;"
points="59190,36307
59190,36857
58840,36857
58840,36307
59190,36307
" /> 
<polyline style="fill-rule:evenodd;"
points="60005,37629
60555,37629
60555,37979
60005,37979
60005,37629
" /> 
<polyline style="fill-rule:evenodd;"
points="60005,38379
60555,38379
60555,38729
60005,38729
60005,38379
" /> 
<polyline style="fill-rule:evenodd;"
points="56915,38552
57465,38552
57465,38902
56915,38902
56915,38552
" /> 
<polyline style="fill-rule:evenodd;"
points="56915,39302
57465,39302
57465,39652
56915,39652
56915,39302
" /> 
<polyline style="fill-rule:evenodd;"
points="60580,36150
60030,36150
60030,35800
60580,35800
60580,36150
" /> 
<polyline style="fill-rule:evenodd;"
points="60580,35400
60030,35400
60030,35050
60580,35050
60580,35400
" /> 
<polyline style="fill-rule:evenodd;"
points="58674,35090
58674,36090
58174,36090
58174,35090
58674,35090
" /> 
<polyline style="fill-rule:evenodd;"
points="57474,35090
57474,36090
56974,36090
56974,35090
57474,35090
" /> 
</g>
<g style="fill:#000000; fill-opacity:1.0; 
stroke:#000000; stroke-width:118.11; stroke-opacity:1; 
stroke-linecap:round; stroke-linejoin:round;">
</g>
<g style="fill:#000000; fill-opacity:0.0; 
stroke:#000000; stroke-width:118.11; stroke-opacity:1; 
stroke-linecap:round; stroke-linejoin:round;">
<path d="M57810 36402
L57810 34640
" />
<path d="M57969 34481
L58274 34481
" />
<path d="M57810 34640
L57969 34481
" />
<path d="M60724 35984
L60313 35984
" />
<path d="M60313 35984
L60305 35975
" />
<path d="M59765 36582
L59765 36007
" />
<path d="M59765 36007
L59734 35975
" />
<path d="M59734 35975
L60305 35975
" />
<path d="M58759 39460
L58759 39641
" />
<path d="M58759 39641
L58969 39851
" />
<path d="M62475 39851
L58969 39851
" />
<path d="M58759 39460
L58633 39460
" />
<path d="M58326 39153
L58326 38727
" />
<path d="M58633 39460
L58326 39153
" />
<path d="M65670 36535
L66063 36535
" />
<path d="M66181 36417
L66181 36035
" />
<path d="M66063 36535
L66181 36417
" />
<path d="M65670 35905
L66051 35905
" />
<path d="M66051 35905
L66181 36035
" />
<path d="M65670 38110
L64995 38110
" />
<path d="M65670 37795
L64995 37795
" />
<path d="M65670 37480
L64995 37480
" />
<path d="M65670 37165
L64995 37165
" />
<path d="M65670 36850
L64995 36850
" />
<path d="M65670 36535
L64996 36535
" />
<path d="M64996 36535
L64995 36535
" />
<path d="M64995 36535
L64995 36850
" />
<path d="M64995 36850
L64995 37165
" />
<path d="M64995 37165
L64995 37480
" />
<path d="M64995 37480
L64995 37795
" />
<path d="M64995 37795
L64995 38110
" />
<path d="M64995 38110
L64995 39415
" />
<path d="M61820 37165
L61820 36257
" />
<path d="M61783 36220
L61170 36220
" />
<path d="M61820 36257
L61783 36220
" />
<path d="M61170 37480
L61820 37480
" />
<path d="M61170 37165
L61820 37165
" />
<path d="M61820 37165
L61820 37480
" />
<path d="M61820 37480
L61820 37726
" />
<path d="M61751 37795
L61170 37795
" />
<path d="M61820 37726
L61751 37795
" />
<path d="M61170 38740
L61484 38740
" />
<path d="M61570 38653
L61570 38422
" />
<path d="M61484 38740
L61570 38653
" />
<path d="M61170 35905
L60724 35905
" />
<path d="M61170 36220
L60728 36220
" />
<path d="M60728 36220
L60724 36216
" />
<path d="M60724 36216
L60724 35984
" />
<path d="M60724 35984
L60724 35905
" />
<path d="M60724 35905
L60724 35732
" />
<path d="M61170 35590
L60739 35590
" />
<path d="M60724 35605
L60724 35732
" />
<path d="M60739 35590
L60724 35605
" />
<path d="M61170 36217
L61175 36222
" />
<path d="M57850 38727
L58326 38727
" />
<path d="M58326 38727
L58326 38129
" />
<path d="M58652 37804
L60280 37804
" />
<path d="M58326 38129
L58652 37804
" />
<path d="M65670 37480
L66201 37480
" />
<path d="M66201 37480
L66279 37559
" />
<path d="M64995 39415
L64995 39851
" />
<path d="M64680 39851
L64995 39851
" />
<path d="M64995 39851
L65912 39851
" />
<path d="M65912 39851
L66279 39547
" />
<path d="M64680 34481
L64926 34481
" />
<path d="M64995 34483
L64995 34915
" />
<path d="M64926 34481
L64995 34483
" />
<path d="M64995 34915
L64995 35732
" />
<path d="M64995 35732
L65168 35905
" />
<path d="M65168 35905
L65670 35905
" />
<path d="M63105 34912
L63105 34481
" />
<path d="M62475 39412
L62475 39851
" />
<path d="M62790 39412
L62790 39851
" />
<path d="M63105 39412
L63105 39851
" />
<path d="M63105 39851
L62790 39851
" />
<path d="M62790 39851
L62475 39851
" />
<path d="M64680 39412
L64680 39851
" />
<path d="M64365 39412
L64365 39851
" />
<path d="M64050 39412
L64050 39851
" />
<path d="M63735 39412
L63735 39851
" />
<path d="M63105 39851
L63735 39851
" />
<path d="M63735 39851
L64050 39851
" />
<path d="M64050 39851
L64365 39851
" />
<path d="M64365 39851
L64680 39851
" />
<path d="M64365 34912
L64365 34481
" />
<path d="M64680 34912
L64680 34481
" />
<path d="M64050 34912
L64050 34481
" />
<path d="M63735 34912
L63735 34481
" />
<path d="M63420 34912
L63420 34481
" />
<path d="M63420 34481
L63735 34481
" />
<path d="M63735 34481
L64050 34481
" />
<path d="M64050 34481
L64365 34481
" />
<path d="M64365 34481
L64680 34481
" />
<path d="M62475 34912
L62475 34481
" />
<path d="M62160 34912
L62160 34481
" />
<path d="M61845 34912
L61845 34481
" />
<path d="M63420 34481
L63105 34481
" />
<path d="M63105 34481
L62475 34481
" />
<path d="M62475 34481
L62160 34481
" />
<path d="M62160 34481
L61845 34481
" />
<path d="M61845 34481
L58274 34481
" />
<path d="M57190 38717
L56831 38717
" />
<path d="M56677 38562
L56405 38562
" />
<path d="M56831 38717
L56677 38562
" />
<path d="M61170 38422
L61570 38422
" />
<path d="M61570 38422
L62224 38422
" />
<path d="M62224 38422
L62475 38673
" />
<path d="M62475 38673
L62475 39412
" />
<path d="M57190 38717
L57840 38717
" />
<path d="M57840 38717
L57850 38727
" />
<path d="M60280 37804
L61158 37804
" />
<path d="M61158 37804
L61170 37792
" />
<path d="M61170 37162
L61204 37196
" />
<path d="M57365 36758
L57454 36758
" />
<path d="M57454 36758
L57810 36402
" />
<path d="M65670 38425
L66140 38425
" />
<path d="M66140 38425
L66357 38208
" />
<path d="M57280 35432
L56779 35432
" />
<path d="M56779 35432
L56405 35807
" />
<path d="M57365 37447
L57321 37447
" />
<path d="M57321 37447
L56665 36791
" />
<path d="M56665 36791
L56405 36791
" />
<path d="M57365 37447
L57585 37447
" />
<path d="M60690 36532
L61170 36532
" />
<path d="M60150 37072
L60690 36532
" />
<path d="M57960 37072
L60150 37072
" />
<path d="M57585 37447
L57960 37072
" />
<path d="M67107 38208
L67107 37560
" />
<path d="M67107 37560
L67105 37559
" />
<path d="M67105 39547
L67105 38899
" />
<path d="M67105 38899
L67107 38897
" />
<path d="M59734 35225
L60305 35225
" />
<path d="M60305 35225
L61465 35225
" />
<path d="M59547 39460
L59362 39460
" />
<path d="M59342 39440
L58757 38836
" />
<path d="M58757 38836
L58757 38655
" />
<path d="M59362 39460
L59342 39440
" />
<path d="M62790 36220
L65670 36220
" />
<path d="M65670 36220
L65670 36220
" />
<path d="M61465 35225
L62460 36220
" />
<path d="M62460 36220
L62790 36220
" />
<path d="M62790 34912
L62790 36220
" />
<path d="M62790 36220
L62790 38110
" />
<path d="M60304 38554
L60751 38107
" />
<path d="M60751 38107
L61170 38107
" />
<path d="M60280 38554
L60304 38554
" />
<path d="M61170 38110
L62790 38110
" />
<path d="M62790 38110
L62834 38110
" />
<path d="M62834 38110
L63420 38696
" />
<path d="M63420 39412
L63420 38696
" />
<path d="M58757 38655
L58757 38288
" />
<path d="M59835 38109
L60280 38554
" />
<path d="M58936 38109
L59835 38109
" />
<path d="M58757 38288
L58936 38109
" />
<path d="M61122 39460
L61764 39460
" />
<path d="M61764 39460
L61845 39379
" />
<path d="M66357 38897
L66240 38897
" />
<path d="M66082 38740
L65670 38740
" />
<path d="M66240 38897
L66082 38740
" />
<path d="M65670 35590
L65670 34978
" />
<path d="M65787 34862
L66811 34862
" />
<path d="M65670 34978
L65787 34862
" />
<path d="M58309 37447
L58309 37556
" />
<path d="M56720 37893
L56405 37578
" />
<path d="M57972 37893
L56720 37893
" />
<path d="M58309 37556
L57972 37893
" />
<path d="M61170 36847
L60779 36847
" />
<path d="M58625 37447
L58309 37447
" />
<path d="M58733 37339
L58625 37447
" />
<path d="M60287 37339
L58733 37339
" />
<path d="M60779 36847
L60287 37339
" />
<path d="M55460 39488
L57169 39488
" />
<path d="M57169 39488
L57190 39467
" />
<path d="M57850 39477
L57200 39477
" />
<path d="M57200 39477
L57190 39467
" />
<path d="M60334 39460
L60334 39057
" />
<path d="M59631 39057
L60334 39057
" />
<path d="M60334 39057
L61537 39057
" />
<path d="M61537 39057
L61712 38877
" />
<path d="M59507 38897
L59507 38655
" />
<path d="M59631 39057
L59507 38897
" />
<path d="M62160 39415
L62160 39011
" />
<path d="M62160 39011
L62027 38877
" />
<path d="M62027 38877
L61712 38877
" />
<path d="M58868 35600
L58434 35600
" />
<path d="M58434 35600
L58424 35590
" />
<path d="M58309 36699
L58309 35744
" />
<path d="M58309 35744
L58464 35590
" />
<path d="M58309 36699
L58898 36699
" />
<path d="M58898 36699
L59015 36582
" />
</g> 
</svg>
