<?xml version="1.0" encoding="UTF-8" standalone="no"?>
<svg
   xmlns:dc="http://purl.org/dc/elements/1.1/"
   xmlns:cc="http://creativecommons.org/ns#"
   xmlns:rdf="http://www.w3.org/1999/02/22-rdf-syntax-ns#"
   xmlns:svg="http://www.w3.org/2000/svg"
   xmlns="http://www.w3.org/2000/svg"
   xmlns:sodipodi="http://sodipodi.sourceforge.net/DTD/sodipodi-0.dtd"
   xmlns:inkscape="http://www.inkscape.org/namespaces/inkscape"
   version="1.1"
   width="29.7002cm"
   height="21.0007cm"
   viewBox="0 0 116930 82680 "
   id="svg2"
   inkscape:version="0.48.5 r10040"
   sodipodi:docname="OsEID-B_Cu.svg">
  <metadata
     id="metadata564">
    <rdf:RDF>
      <cc:Work
         rdf:about="">
        <dc:format>image/svg+xml</dc:format>
        <dc:type
           rdf:resource="http://purl.org/dc/dcmitype/StillImage" />
        <dc:title>SVG Picture created as OsEID-B_Cu.svg date 2015/07/22 08:04:01 </dc:title>
      </cc:Work>
    </rdf:RDF>
  </metadata>
  <defs
     id="defs562" />
  <sodipodi:namedview
     pagecolor="#ffffff"
     bordercolor="#666666"
     borderopacity="1"
     objecttolerance="10"
     gridtolerance="10"
     guidetolerance="10"
     inkscape:pageopacity="0"
     inkscape:pageshadow="2"
     inkscape:window-width="640"
     inkscape:window-height="480"
     id="namedview560"
     showgrid="false"
     inkscape:zoom="0.31072743"
     inkscape:cx="526.18463"
     inkscape:cy="372.05963"
     inkscape:window-x="0"
     inkscape:window-y="0"
     inkscape:window-maximized="0"
     inkscape:current-layer="svg2" />
  <title
     id="title4">SVG Picture created as OsEID-B_Cu.svg date 2015/07/22 08:04:01 </title>
  <desc
     id="desc6">Picture generated by PCBNEW </desc>
  <g
     style="fill:#000000; fill-opacity:1;stroke:#000000; stroke-opacity:1; stroke-linecap:round; stroke-linejoin:round; "
     transform="translate(0 0) scale(1 1)"
     id="g8" />
  <g
     style="fill:#000000;fill-opacity:0;stroke:#000000;stroke-width:157.47999573;stroke-linecap:round;stroke-linejoin:round;stroke-opacity:1"
     id="g10"
     transform="matrix(-1,0,0,-1,112440.9,104737)">
    <path
       d="m 60457,60070 -450,0 -225,-113 -225,-225 -112,-450 0,-787 112,-450 225,-225 225,-112 450,0 225,112 225,225 113,450 0,787 -113,450 -225,225 -225,113"
       id="path12"
       inkscape:connector-curvature="0" />
    <path
       d="m 58545,57820 -225,-112 -450,0 -225,112 -112,225 0,113 112,225 225,112 338,0 225,113 112,224 0,113 -112,225 -225,112 -338,0 -225,-112"
       id="path14"
       inkscape:connector-curvature="0" />
    <path
       d="m 56520,58945 -787,0"
       id="path16"
       inkscape:connector-curvature="0" />
    <path
       d="m 55395,57708 1125,0 0,2362 -1125,0"
       id="path18"
       inkscape:connector-curvature="0" />
    <path
       d="m 54383,57708 0,2362"
       id="path20"
       inkscape:connector-curvature="0" />
    <path
       d="m 53258,57708 0,2362 -562,0 -338,-113 -225,-225 -112,-225 -113,-450 0,-337 113,-450 112,-225 225,-225 338,-112 562,0"
       id="path22"
       inkscape:connector-curvature="0" />
  </g>
  <g
     style="fill:#000000;fill-opacity:0;stroke:#000000;stroke-width:39.37009811;stroke-linecap:round;stroke-linejoin:round;stroke-opacity:1"
     id="g24"
     transform="matrix(-1,0,0,-1,112440.9,104737)">
    <path
       d="m 64110,54861 0,-394"
       id="path26"
       inkscape:connector-curvature="0" />
    <path
       d="m 63559,54861 0,-394"
       id="path28"
       inkscape:connector-curvature="0" />
    <path
       d="m 63559,54861 551,0"
       id="path30"
       inkscape:connector-curvature="0" />
    <path
       d="m 64110,54467 -551,0"
       id="path32"
       inkscape:connector-curvature="0" />
    <path
       d="m 67913,53349 -5906,0"
       id="path34"
       inkscape:connector-curvature="0" />
    <path
       d="m 67913,47443 0,5906"
       id="path36"
       inkscape:connector-curvature="0" />
    <path
       d="m 62007,47443 5906,0"
       id="path38"
       inkscape:connector-curvature="0" />
    <path
       d="m 62007,53349 0,-5906"
       id="path40"
       inkscape:connector-curvature="0" />
    <path
       d="m 73070.9,42369 a 625.984,625.984 0 0 0 -626,-626"
       id="path42"
       inkscape:connector-curvature="0" />
    <path
       d="m 72444.9,62995 a 625.984,625.984 0 0 0 626,-626"
       id="path44"
       inkscape:connector-curvature="0" />
    <path
       d="m 39996.1,41743 a 625.984,625.984 0 0 0 -626,626"
       id="path46"
       inkscape:connector-curvature="0" />
    <path
       d="m 39370.1,62369 a 625.984,625.984 0 0 0 626,626"
       id="path48"
       inkscape:connector-curvature="0" />
    <path
       d="m 39996,41742 32448,0"
       id="path50"
       inkscape:connector-curvature="0" />
    <path
       d="m 39370,62368 0,-20000"
       id="path52"
       inkscape:connector-curvature="0" />
    <path
       d="m 73070,62368 0,-20000"
       id="path54"
       inkscape:connector-curvature="0" />
    <path
       d="m 39996,62994 32448,0"
       id="path56"
       inkscape:connector-curvature="0" />
  </g>
  <g
     style="fill:#000000; fill-opacity:0.0;  stroke:#000000; stroke-width:59.0551; stroke-opacity:1;  stroke-linecap:round; stroke-linejoin:round;"
     id="g58" />
  <g
     style="fill:#000000;fill-opacity:1;stroke:#000000;stroke-width:59.05509949;stroke-linecap:round;stroke-linejoin:round;stroke-opacity:1"
     id="g60"
     transform="matrix(-1,0,0,-1,112440.9,104737)">
    <polyline
       style="fill-rule:evenodd"
       points="64344,54949 64344,54378 64009,54378 64009,54949 64344,54949 "
       id="polyline62" />
    <polyline
       style="fill-rule:evenodd"
       points="63635,54949 63635,54378 63301,54378 63301,54949 63635,54949 "
       id="polyline64" />
    <polyline
       style="fill-rule:evenodd"
       points="61446,52817 62175,52817 62175,52699 61446,52699 61446,52817 "
       id="polyline66" />
  </g>
  <g
     style="fill:#000000;fill-opacity:1;stroke:#000000;stroke-width:177.16499329;stroke-linecap:round;stroke-linejoin:round;stroke-opacity:1"
     id="g68"
     transform="matrix(-1,0,0,-1,112440.9,104737)">
    <path
       d="m 62116,52443 -611,0"
       id="path70"
       inkscape:connector-curvature="0" />
    <path
       d="m 62116,52128 -611,0"
       id="path72"
       inkscape:connector-curvature="0" />
    <path
       d="m 62116,51813 -611,0"
       id="path74"
       inkscape:connector-curvature="0" />
    <path
       d="m 62116,51498 -611,0"
       id="path76"
       inkscape:connector-curvature="0" />
    <path
       d="m 62116,51183 -611,0"
       id="path78"
       inkscape:connector-curvature="0" />
    <path
       d="m 62116,50868 -611,0"
       id="path80"
       inkscape:connector-curvature="0" />
    <path
       d="m 62116,50554 -611,0"
       id="path82"
       inkscape:connector-curvature="0" />
    <path
       d="m 62116,50239 -611,0"
       id="path84"
       inkscape:connector-curvature="0" />
    <path
       d="m 62116,49924 -611,0"
       id="path86"
       inkscape:connector-curvature="0" />
    <path
       d="m 62116,49609 -611,0"
       id="path88"
       inkscape:connector-curvature="0" />
    <path
       d="m 62116,49294 -611,0"
       id="path90"
       inkscape:connector-curvature="0" />
    <path
       d="m 62116,48979 -611,0"
       id="path92"
       inkscape:connector-curvature="0" />
    <path
       d="m 62116,48664 -611,0"
       id="path94"
       inkscape:connector-curvature="0" />
    <path
       d="m 62116,48349 -611,0"
       id="path96"
       inkscape:connector-curvature="0" />
    <path
       d="m 62116,48034 -611,0"
       id="path98"
       inkscape:connector-curvature="0" />
    <path
       d="m 62598,47552 0,-611"
       id="path100"
       inkscape:connector-curvature="0" />
    <path
       d="m 62913,47552 0,-611"
       id="path102"
       inkscape:connector-curvature="0" />
    <path
       d="m 63228,47552 0,-611"
       id="path104"
       inkscape:connector-curvature="0" />
    <path
       d="m 63543,47552 0,-611"
       id="path106"
       inkscape:connector-curvature="0" />
    <path
       d="m 63858,47552 0,-611"
       id="path108"
       inkscape:connector-curvature="0" />
    <path
       d="m 64173,47552 0,-611"
       id="path110"
       inkscape:connector-curvature="0" />
    <path
       d="m 64488,47552 0,-611"
       id="path112"
       inkscape:connector-curvature="0" />
    <path
       d="m 64803,47552 0,-611"
       id="path114"
       inkscape:connector-curvature="0" />
    <path
       d="m 65118,47552 0,-611"
       id="path116"
       inkscape:connector-curvature="0" />
    <path
       d="m 65433,47552 0,-611"
       id="path118"
       inkscape:connector-curvature="0" />
    <path
       d="m 65748,47552 0,-611"
       id="path120"
       inkscape:connector-curvature="0" />
    <path
       d="m 66062,47552 0,-611"
       id="path122"
       inkscape:connector-curvature="0" />
    <path
       d="m 66377,47552 0,-611"
       id="path124"
       inkscape:connector-curvature="0" />
    <path
       d="m 66692,47552 0,-611"
       id="path126"
       inkscape:connector-curvature="0" />
    <path
       d="m 67007,47552 0,-611"
       id="path128"
       inkscape:connector-curvature="0" />
    <path
       d="m 67322,47552 0,-611"
       id="path130"
       inkscape:connector-curvature="0" />
    <path
       d="m 68415,48034 -610,0"
       id="path132"
       inkscape:connector-curvature="0" />
    <path
       d="m 68415,48349 -610,0"
       id="path134"
       inkscape:connector-curvature="0" />
    <path
       d="m 68415,48664 -610,0"
       id="path136"
       inkscape:connector-curvature="0" />
    <path
       d="m 68415,48979 -610,0"
       id="path138"
       inkscape:connector-curvature="0" />
    <path
       d="m 68415,49294 -610,0"
       id="path140"
       inkscape:connector-curvature="0" />
    <path
       d="m 68415,49609 -610,0"
       id="path142"
       inkscape:connector-curvature="0" />
    <path
       d="m 68415,49924 -610,0"
       id="path144"
       inkscape:connector-curvature="0" />
    <path
       d="m 68415,50239 -610,0"
       id="path146"
       inkscape:connector-curvature="0" />
    <path
       d="m 68415,50554 -610,0"
       id="path148"
       inkscape:connector-curvature="0" />
    <path
       d="m 68415,50868 -610,0"
       id="path150"
       inkscape:connector-curvature="0" />
    <path
       d="m 68415,51183 -610,0"
       id="path152"
       inkscape:connector-curvature="0" />
    <path
       d="m 68415,51498 -610,0"
       id="path154"
       inkscape:connector-curvature="0" />
    <path
       d="m 68415,51813 -610,0"
       id="path156"
       inkscape:connector-curvature="0" />
    <path
       d="m 68415,52128 -610,0"
       id="path158"
       inkscape:connector-curvature="0" />
    <path
       d="m 68415,52443 -610,0"
       id="path160"
       inkscape:connector-curvature="0" />
    <path
       d="m 68415,52758 -610,0"
       id="path162"
       inkscape:connector-curvature="0" />
    <path
       d="m 67322,53851 0,-610"
       id="path164"
       inkscape:connector-curvature="0" />
    <path
       d="m 67007,53851 0,-610"
       id="path166"
       inkscape:connector-curvature="0" />
    <path
       d="m 66377,53851 0,-610"
       id="path168"
       inkscape:connector-curvature="0" />
    <path
       d="m 66692,53851 0,-610"
       id="path170"
       inkscape:connector-curvature="0" />
    <path
       d="m 66062,53851 0,-610"
       id="path172"
       inkscape:connector-curvature="0" />
    <path
       d="m 65748,53851 0,-610"
       id="path174"
       inkscape:connector-curvature="0" />
    <path
       d="m 65433,53851 0,-610"
       id="path176"
       inkscape:connector-curvature="0" />
    <path
       d="m 65118,53851 0,-610"
       id="path178"
       inkscape:connector-curvature="0" />
    <path
       d="m 64803,53851 0,-610"
       id="path180"
       inkscape:connector-curvature="0" />
    <path
       d="m 64488,53851 0,-610"
       id="path182"
       inkscape:connector-curvature="0" />
    <path
       d="m 64173,53851 0,-610"
       id="path184"
       inkscape:connector-curvature="0" />
    <path
       d="m 63858,53851 0,-610"
       id="path186"
       inkscape:connector-curvature="0" />
    <path
       d="m 63543,53851 0,-610"
       id="path188"
       inkscape:connector-curvature="0" />
    <path
       d="m 63228,53851 0,-610"
       id="path190"
       inkscape:connector-curvature="0" />
    <path
       d="m 62913,53851 0,-610"
       id="path192"
       inkscape:connector-curvature="0" />
    <path
       d="m 62598,53851 0,-610"
       id="path194"
       inkscape:connector-curvature="0" />
  </g>
  <g
     style="fill:#000000;fill-opacity:1;stroke:#000000;stroke-width:59.05509949;stroke-linecap:round;stroke-linejoin:round;stroke-opacity:1"
     id="g196"
     transform="matrix(-1,0,0,-1,112440.9,104737)">
    <polyline
       style="fill-rule:evenodd"
       points="47100,49406 45387,49406 45387,50134 47100,50134 47100,49406 "
       id="polyline198" />
  </g>
  <g
     style="fill:#000000; fill-opacity:1.0;  stroke:#000000; stroke-width:0; stroke-opacity:1;  stroke-linecap:round; stroke-linejoin:round;"
     id="g200" />
  <g
     style="fill:#000000;fill-opacity:1;stroke:#000000;stroke-width:59.05509949;stroke-linecap:round;stroke-linejoin:round;stroke-opacity:1"
     id="g202"
     transform="matrix(-1,0,0,-1,112440.9,104737)">
    <polyline
       style="fill-rule:evenodd"
       points="45240,49376 43468,49376 43468,50164 45240,50164 45240,49376 "
       id="polyline204" />
    <polyline
       style="fill-rule:evenodd"
       points="47100,50311 45387,50311 45387,51040 47100,51040 47100,50311 "
       id="polyline206" />
    <polyline
       style="fill-rule:evenodd"
       points="45210,50311 43498,50311 43498,51040 45210,51040 45210,50311 "
       id="polyline208" />
    <polyline
       style="fill-rule:evenodd"
       points="47100,51217 45387,51217 45387,51945 47100,51945 47100,51217 "
       id="polyline210" />
    <polyline
       style="fill-rule:evenodd"
       points="45210,51217 43498,51217 43498,51945 45210,51945 45210,51217 "
       id="polyline212" />
  </g>
  <g
     style="fill:#000000;fill-opacity:1;stroke:#000000;stroke-width:100;stroke-linecap:round;stroke-linejoin:round;stroke-opacity:1"
     id="g214"
     transform="matrix(-1,0,0,-1,112440.9,104737)">
    <path
       d="m 61811,50554 -922,0"
       id="path216"
       inkscape:connector-curvature="0" />
    <path
       d="m 61811,50868 -922,0"
       id="path218"
       inkscape:connector-curvature="0" />
    <path
       d="m 61811,51183 -922,0"
       id="path220"
       inkscape:connector-curvature="0" />
    <path
       d="m 61811,51498 -922,0"
       id="path222"
       inkscape:connector-curvature="0" />
    <path
       d="m 61811,51813 -922,0"
       id="path224"
       inkscape:connector-curvature="0" />
    <path
       d="m 61811,50239 -922,0"
       id="path226"
       inkscape:connector-curvature="0" />
    <path
       d="m 43830,54526 13953,0"
       id="path228"
       inkscape:connector-curvature="0" />
    <path
       d="m 60496,51105 393,0"
       id="path230"
       inkscape:connector-curvature="0" />
    <path
       d="m 58940,52660 1556,-1555"
       id="path232"
       inkscape:connector-curvature="0" />
    <path
       d="m 58940,53368 0,-708"
       id="path234"
       inkscape:connector-curvature="0" />
    <path
       d="m 57783,54526 1157,-1158"
       id="path236"
       inkscape:connector-curvature="0" />
    <path
       d="m 61811,52128 -815,0"
       id="path238"
       inkscape:connector-curvature="0" />
    <path
       d="m 60996,52128 -107,-106"
       id="path240"
       inkscape:connector-curvature="0" />
    <path
       d="m 60889,52022 0,-209"
       id="path242"
       inkscape:connector-curvature="0" />
    <path
       d="m 60889,51813 0,-315"
       id="path244"
       inkscape:connector-curvature="0" />
    <path
       d="m 60889,51498 0,-315"
       id="path246"
       inkscape:connector-curvature="0" />
    <path
       d="m 60889,51183 0,-78"
       id="path248"
       inkscape:connector-curvature="0" />
    <path
       d="m 61003,49924 808,0"
       id="path250"
       inkscape:connector-curvature="0" />
    <path
       d="m 60889,51105 0,-237"
       id="path252"
       inkscape:connector-curvature="0" />
    <path
       d="m 60889,50868 0,-314"
       id="path254"
       inkscape:connector-curvature="0" />
    <path
       d="m 60889,50554 0,-315"
       id="path256"
       inkscape:connector-curvature="0" />
    <path
       d="m 60889,50239 0,-201"
       id="path258"
       inkscape:connector-curvature="0" />
    <path
       d="m 60889,50038 114,-114"
       id="path260"
       inkscape:connector-curvature="0" />
    <path
       d="m 42874,51825 0,1744"
       id="path262"
       inkscape:connector-curvature="0" />
    <path
       d="m 42874,53569 956,957"
       id="path264"
       inkscape:connector-curvature="0" />
    <path
       d="m 44350,51585 -1236,0"
       id="path266"
       inkscape:connector-curvature="0" />
    <path
       d="m 43114,51585 -240,240"
       id="path268"
       inkscape:connector-curvature="0" />
    <path
       d="m 64173,46187 -158,0"
       id="path270"
       inkscape:connector-curvature="0" />
    <path
       d="m 59346,45613 -4158,4157"
       id="path272"
       inkscape:connector-curvature="0" />
    <path
       d="m 63440,45613 -4094,0"
       id="path274"
       inkscape:connector-curvature="0" />
    <path
       d="m 64015,46187 -575,-574"
       id="path276"
       inkscape:connector-curvature="0" />
    <path
       d="m 67322,47246 0,-1059"
       id="path278"
       inkscape:connector-curvature="0" />
    <path
       d="m 67007,47246 0,-1059"
       id="path280"
       inkscape:connector-curvature="0" />
    <path
       d="m 66692,47246 0,-1059"
       id="path282"
       inkscape:connector-curvature="0" />
    <path
       d="m 66377,47246 0,-1059"
       id="path284"
       inkscape:connector-curvature="0" />
    <path
       d="m 66062,47246 0,-1059"
       id="path286"
       inkscape:connector-curvature="0" />
    <path
       d="m 65748,47246 0,-1059"
       id="path288"
       inkscape:connector-curvature="0" />
    <path
       d="m 65118,47246 0,-1059"
       id="path290"
       inkscape:connector-curvature="0" />
    <path
       d="m 64803,47246 0,-1059"
       id="path292"
       inkscape:connector-curvature="0" />
    <path
       d="m 64488,47246 0,-1059"
       id="path294"
       inkscape:connector-curvature="0" />
    <path
       d="m 64173,47246 0,-1059"
       id="path296"
       inkscape:connector-curvature="0" />
    <path
       d="m 65118,46187 -315,0"
       id="path298"
       inkscape:connector-curvature="0" />
    <path
       d="m 64803,46187 -315,0"
       id="path300"
       inkscape:connector-curvature="0" />
    <path
       d="m 64488,46187 -315,0"
       id="path302"
       inkscape:connector-curvature="0" />
    <path
       d="m 68110,52758 850,0"
       id="path304"
       inkscape:connector-curvature="0" />
    <path
       d="m 67007,53546 0,803"
       id="path306"
       inkscape:connector-curvature="0" />
    <path
       d="m 67322,53546 0,803"
       id="path308"
       inkscape:connector-curvature="0" />
    <path
       d="m 66692,53546 0,685"
       id="path310"
       inkscape:connector-curvature="0" />
    <path
       d="m 66692,54231 119,118"
       id="path312"
       inkscape:connector-curvature="0" />
    <path
       d="m 68110,48349 850,0"
       id="path314"
       inkscape:connector-curvature="0" />
    <path
       d="m 68110,48034 850,0"
       id="path316"
       inkscape:connector-curvature="0" />
    <path
       d="m 68960,51309 0,-2960"
       id="path318"
       inkscape:connector-curvature="0" />
    <path
       d="m 68960,48349 0,-315"
       id="path320"
       inkscape:connector-curvature="0" />
    <path
       d="m 68960,48034 0,-894"
       id="path322"
       inkscape:connector-curvature="0" />
    <path
       d="m 68960,47140 -953,-953"
       id="path324"
       inkscape:connector-curvature="0" />
    <path
       d="m 68110,52443 850,0"
       id="path326"
       inkscape:connector-curvature="0" />
    <path
       d="m 68110,51813 850,0"
       id="path328"
       inkscape:connector-curvature="0" />
    <path
       d="m 68110,51498 850,0"
       id="path330"
       inkscape:connector-curvature="0" />
    <path
       d="m 66811,54349 196,0"
       id="path332"
       inkscape:connector-curvature="0" />
    <path
       d="m 67007,54349 315,0"
       id="path334"
       inkscape:connector-curvature="0" />
    <path
       d="m 67322,54349 776,0"
       id="path336"
       inkscape:connector-curvature="0" />
    <path
       d="m 46244,49770 8944,0"
       id="path338"
       inkscape:connector-curvature="0" />
    <path
       d="m 65433,47246 0,-1059"
       id="path340"
       inkscape:connector-curvature="0" />
    <path
       d="m 65118,46187 315,0"
       id="path342"
       inkscape:connector-curvature="0" />
    <path
       d="m 65433,46187 315,0"
       id="path344"
       inkscape:connector-curvature="0" />
    <path
       d="m 65748,46187 314,0"
       id="path346"
       inkscape:connector-curvature="0" />
    <path
       d="m 66062,46187 315,0"
       id="path348"
       inkscape:connector-curvature="0" />
    <path
       d="m 66377,46187 315,0"
       id="path350"
       inkscape:connector-curvature="0" />
    <path
       d="m 66692,46187 315,0"
       id="path352"
       inkscape:connector-curvature="0" />
    <path
       d="m 67007,46187 315,0"
       id="path354"
       inkscape:connector-curvature="0" />
    <path
       d="m 67322,46187 685,0"
       id="path356"
       inkscape:connector-curvature="0" />
    <path
       d="m 68960,52128 0,-315"
       id="path358"
       inkscape:connector-curvature="0" />
    <path
       d="m 68960,51813 0,-315"
       id="path360"
       inkscape:connector-curvature="0" />
    <path
       d="m 68960,51498 0,-189"
       id="path362"
       inkscape:connector-curvature="0" />
    <path
       d="m 68834,51183 -724,0"
       id="path364"
       inkscape:connector-curvature="0" />
    <path
       d="m 68960,51309 -126,-126"
       id="path366"
       inkscape:connector-curvature="0" />
    <path
       d="m 68960,53487 0,-729"
       id="path368"
       inkscape:connector-curvature="0" />
    <path
       d="m 68960,52758 0,-315"
       id="path370"
       inkscape:connector-curvature="0" />
    <path
       d="m 68098,54349 862,-862"
       id="path372"
       inkscape:connector-curvature="0" />
    <path
       d="m 68110,52128 850,0"
       id="path374"
       inkscape:connector-curvature="0" />
    <path
       d="m 68960,52443 0,-315"
       id="path376"
       inkscape:connector-curvature="0" />
    <path
       d="m 62598,47246 0,-653"
       id="path378"
       inkscape:connector-curvature="0" />
    <path
       d="m 63051,46593 177,177"
       id="path380"
       inkscape:connector-curvature="0" />
    <path
       d="m 62913,47246 0,-653"
       id="path382"
       inkscape:connector-curvature="0" />
    <path
       d="m 61811,48979 -1213,0"
       id="path384"
       inkscape:connector-curvature="0" />
    <path
       d="m 61811,48664 -1213,0"
       id="path386"
       inkscape:connector-curvature="0" />
    <path
       d="m 61811,48349 -1213,0"
       id="path388"
       inkscape:connector-curvature="0" />
    <path
       d="m 63228,47246 0,-476"
       id="path390"
       inkscape:connector-curvature="0" />
    <path
       d="m 63051,46593 -138,0"
       id="path392"
       inkscape:connector-curvature="0" />
    <path
       d="m 62913,46593 -315,0"
       id="path394"
       inkscape:connector-curvature="0" />
    <path
       d="m 62598,46593 -1339,0"
       id="path396"
       inkscape:connector-curvature="0" />
    <path
       d="m 61031,46821 0,1213"
       id="path398"
       inkscape:connector-curvature="0" />
    <path
       d="m 61259,46593 -228,228"
       id="path400"
       inkscape:connector-curvature="0" />
    <path
       d="m 61811,49294 -1213,0"
       id="path402"
       inkscape:connector-curvature="0" />
    <path
       d="m 61811,48034 -780,0"
       id="path404"
       inkscape:connector-curvature="0" />
    <path
       d="m 61031,48034 -331,0"
       id="path406"
       inkscape:connector-curvature="0" />
    <path
       d="m 60598,48136 0,213"
       id="path408"
       inkscape:connector-curvature="0" />
    <path
       d="m 60598,48349 0,315"
       id="path410"
       inkscape:connector-curvature="0" />
    <path
       d="m 60598,48664 0,315"
       id="path412"
       inkscape:connector-curvature="0" />
    <path
       d="m 60598,48979 0,315"
       id="path414"
       inkscape:connector-curvature="0" />
    <path
       d="m 60598,49294 0,315"
       id="path416"
       inkscape:connector-curvature="0" />
    <path
       d="m 60700,48034 -102,102"
       id="path418"
       inkscape:connector-curvature="0" />
    <path
       d="m 46244,51581 11917,0"
       id="path420"
       inkscape:connector-curvature="0" />
    <path
       d="m 60133,49609 465,0"
       id="path422"
       inkscape:connector-curvature="0" />
    <path
       d="m 60598,49609 1213,0"
       id="path424"
       inkscape:connector-curvature="0" />
    <path
       d="m 58161,51581 1972,-1972"
       id="path426"
       inkscape:connector-curvature="0" />
    <path
       d="m 64803,54530 -315,0"
       id="path428"
       inkscape:connector-curvature="0" />
    <path
       d="m 64173,54069 315,0"
       id="path430"
       inkscape:connector-curvature="0" />
    <path
       d="m 64488,53546 0,523"
       id="path432"
       inkscape:connector-curvature="0" />
    <path
       d="m 64488,54069 0,461"
       id="path434"
       inkscape:connector-curvature="0" />
    <path
       d="m 64488,54530 0,31"
       id="path436"
       inkscape:connector-curvature="0" />
    <path
       d="m 64488,54561 -103,103"
       id="path438"
       inkscape:connector-curvature="0" />
    <path
       d="m 64385,54664 -263,0"
       id="path440"
       inkscape:connector-curvature="0" />
    <path
       d="m 64173,53546 0,523"
       id="path442"
       inkscape:connector-curvature="0" />
    <path
       d="m 64173,54069 -315,0"
       id="path444"
       inkscape:connector-curvature="0" />
    <path
       d="m 63543,54069 315,0"
       id="path446"
       inkscape:connector-curvature="0" />
    <path
       d="m 65748,53546 0,984"
       id="path448"
       inkscape:connector-curvature="0" />
    <path
       d="m 64803,53546 0,984"
       id="path450"
       inkscape:connector-curvature="0" />
    <path
       d="m 62913,53546 0,1700"
       id="path452"
       inkscape:connector-curvature="0" />
    <path
       d="m 62913,55246 12,12"
       id="path454"
       inkscape:connector-curvature="0" />
    <path
       d="m 62925,55258 3039,0"
       id="path456"
       inkscape:connector-curvature="0" />
    <path
       d="m 65964,55258 98,-98"
       id="path458"
       inkscape:connector-curvature="0" />
    <path
       d="m 66062,55160 0,-630"
       id="path460"
       inkscape:connector-curvature="0" />
    <path
       d="m 66062,54530 0,-984"
       id="path462"
       inkscape:connector-curvature="0" />
    <path
       d="m 65433,53546 0,984"
       id="path464"
       inkscape:connector-curvature="0" />
    <path
       d="m 65118,53546 0,984"
       id="path466"
       inkscape:connector-curvature="0" />
    <path
       d="m 63543,53546 0,523"
       id="path468"
       inkscape:connector-curvature="0" />
    <path
       d="m 66062,54530 -314,0"
       id="path470"
       inkscape:connector-curvature="0" />
    <path
       d="m 65748,54530 -315,0"
       id="path472"
       inkscape:connector-curvature="0" />
    <path
       d="m 65433,54530 -315,0"
       id="path474"
       inkscape:connector-curvature="0" />
    <path
       d="m 65118,54530 -315,0"
       id="path476"
       inkscape:connector-curvature="0" />
    <path
       d="m 63858,53546 0,523"
       id="path478"
       inkscape:connector-curvature="0" />
    <path
       d="m 63228,53546 0,689"
       id="path480"
       inkscape:connector-curvature="0" />
    <path
       d="m 63468,54475 0,189"
       id="path482"
       inkscape:connector-curvature="0" />
    <path
       d="m 63228,54235 240,240"
       id="path484"
       inkscape:connector-curvature="0" />
    <path
       d="m 61811,52443 -1233,0"
       id="path486"
       inkscape:connector-curvature="0" />
    <path
       d="m 59787,53235 0,1299"
       id="path488"
       inkscape:connector-curvature="0" />
    <path
       d="m 60578,52443 -791,792"
       id="path490"
       inkscape:connector-curvature="0" />
    <path
       d="m 42358,54050 1043,1043"
       id="path492"
       inkscape:connector-curvature="0" />
    <path
       d="m 58681,55093 547,0"
       id="path494"
       inkscape:connector-curvature="0" />
    <path
       d="m 59787,54534 0,-4"
       id="path496"
       inkscape:connector-curvature="0" />
    <path
       d="m 59228,55093 559,-559"
       id="path498"
       inkscape:connector-curvature="0" />
    <path
       d="m 59224,55093 -543,0"
       id="path500"
       inkscape:connector-curvature="0" />
    <path
       d="m 58681,55093 -15280,0"
       id="path502"
       inkscape:connector-curvature="0" />
    <path
       d="m 42358,51239 0,2811"
       id="path504"
       inkscape:connector-curvature="0" />
    <path
       d="m 42917,50680 1433,0"
       id="path506"
       inkscape:connector-curvature="0" />
    <path
       d="m 42358,51239 559,-559"
       id="path508"
       inkscape:connector-curvature="0" />
    <path
       d="m 59224,55093 563,-563"
       id="path510"
       inkscape:connector-curvature="0" />
    <path
       d="m 62598,55069 0,477"
       id="path512"
       inkscape:connector-curvature="0" />
    <path
       d="m 42456,49431 0,-3468"
       id="path514"
       inkscape:connector-curvature="0" />
    <path
       d="m 69405,45368 0,9847"
       id="path516"
       inkscape:connector-curvature="0" />
    <path
       d="m 69090,45054 315,314"
       id="path518"
       inkscape:connector-curvature="0" />
    <path
       d="m 43366,45054 25724,0"
       id="path520"
       inkscape:connector-curvature="0" />
    <path
       d="m 42456,45963 910,-909"
       id="path522"
       inkscape:connector-curvature="0" />
    <path
       d="m 66377,53546 0,2000"
       id="path524"
       inkscape:connector-curvature="0" />
    <path
       d="m 60795,54766 0,555"
       id="path526"
       inkscape:connector-curvature="0" />
    <path
       d="m 61019,55546 1579,0"
       id="path528"
       inkscape:connector-curvature="0" />
    <path
       d="m 60795,55321 224,225"
       id="path530"
       inkscape:connector-curvature="0" />
    <path
       d="m 62598,55546 3779,0"
       id="path532"
       inkscape:connector-curvature="0" />
    <path
       d="m 69074,55546 331,-331"
       id="path534"
       inkscape:connector-curvature="0" />
    <path
       d="m 66377,55546 2697,0"
       id="path536"
       inkscape:connector-curvature="0" />
    <path
       d="m 42456,49431 339,339"
       id="path538"
       inkscape:connector-curvature="0" />
    <path
       d="m 42795,49770 1559,0"
       id="path540"
       inkscape:connector-curvature="0" />
    <path
       d="m 62598,53546 0,1523"
       id="path542"
       inkscape:connector-curvature="0" />
    <path
       d="m 61811,52758 -882,0"
       id="path544"
       inkscape:connector-curvature="0" />
    <path
       d="m 60795,52892 0,1874"
       id="path546"
       inkscape:connector-curvature="0" />
    <path
       d="m 60929,52758 -134,134"
       id="path548"
       inkscape:connector-curvature="0" />
    <path
       d="m 63543,47246 0,-716"
       id="path550"
       inkscape:connector-curvature="0" />
    <path
       d="m 55874,50676 -9630,0"
       id="path552"
       inkscape:connector-curvature="0" />
    <path
       d="m 60409,46140 -4535,4536"
       id="path554"
       inkscape:connector-curvature="0" />
    <path
       d="m 63153,46140 -2744,0"
       id="path556"
       inkscape:connector-curvature="0" />
    <path
       d="m 63543,46530 -390,-390"
       id="path558"
       inkscape:connector-curvature="0" />
  </g>
</svg>
