<?xml version="1.0" standalone="no"?>
 <!DOCTYPE svg PUBLIC "-//W3C//DTD SVG 1.1//EN" 
 "http://www.w3.org/Graphics/SVG/1.1/DTD/svg11.dtd"> 
<svg xmlns="http://www.w3.org/2000/svg" version="1.1" 
    width="29.7002cm" height="21.0007cm" viewBox="0 0 116930 82680 ">
<title>SVG Picture created as OsEID_token-Dwgs.User.svg date 2016/10/04 08:11:52 </title>
  <desc>Picture generated by PCBNEW </desc>
<g style="fill:#000000; fill-opacity:1;stroke:#000000; stroke-opacity:1;
stroke-linecap:round; stroke-linejoin:round; "
 transform="translate(0 0) scale(1 1)">
</g>
<g style="fill:#000000; fill-opacity:0.0; 
stroke:#000000; stroke-width:-0.000393701; stroke-opacity:1; 
stroke-linecap:round; stroke-linejoin:round;">
</g>
<g style="fill:#000000; fill-opacity:0.0; 
stroke:#000000; stroke-width:157.48; stroke-opacity:1; 
stroke-linecap:round; stroke-linejoin:round;">
<path d="M61929 37952
L62086 37755
" />
<path d="M62401 38267
L62633 38503
" />
<path d="M59141 38897
L59271 39019
" />
<path d="M59299 36043
L59385 36220
" />
<path d="M58267 34775
L58031 35000
" />
<path d="M59299 34775
L59299 36043
" />
<path d="M60738 35393
L61429 35393
" />
<path d="M61220 34775
L58267 34775
" />
<path d="M60511 35600
L59299 35600
" />
<path d="M60738 35393
L60511 35600
" />
<path d="M61751 35307
L62633 35307
" />
<path d="M62003 39031
L62003 39724
" />
<path d="M59850 38425
L59692 38275
" />
<path d="M55901 38854
L56137 39094
" />
<path d="M58464 38267
L58464 38937
" />
<path d="M58464 38937
L58661 39153
" />
<path d="M58212 39271
L58023 39094
" />
<path d="M66035 38582
L66181 38551
" />
<path d="M66141 37854
L66043 37952
" />
<path d="M66043 37952
L66043 38267
" />
</g>
<g style="fill:#000000; fill-opacity:0.0; 
stroke:#000000; stroke-width:78.7402; stroke-opacity:1; 
stroke-linecap:round; stroke-linejoin:round;">
<path d="M56405 38484
L56405 38602
" />
<path d="M56405 37539
L56405 37618
" />
<path d="M56405 36830
L56405 36751
" />
<path d="M56405 35767
L56405 35846
" />
<path d="M55066 39488
L55854 39488
" />
<path d="M55066 34881
L55854 34881
" />
</g>
<g style="fill:#000000; fill-opacity:0.0; 
stroke:#000000; stroke-width:157.48; stroke-opacity:1; 
stroke-linecap:round; stroke-linejoin:round;">
<path d="M54200 40078
L54200 34251
" />
<path d="M67716 40236
L54330 40236
" />
<path d="M67874 34330
L67874 40078
" />
<path d="M54409 34094
L67716 34094
" />
<path d="M64522 39685
L64522 39039
" />
<path d="M64207 39685
L64207 39043
" />
<path d="M63892 39685
L63892 39039
" />
<path d="M60740 36688
L61559 36688
" />
<path d="M60220 37208
L60740 36688
" />
<path d="M58011 37208
L60220 37208
" />
<path d="M57850 37370
L58011 37208
" />
<path d="M57850 37728
L57850 37370
" />
<path d="M56968 37728
L57850 37728
" />
<path d="M56968 37389
L56968 37728
" />
<path d="M56771 37181
L56968 37389
" />
<path d="M55901 37181
L56771 37181
" />
<path d="M58031 38070
L55901 38070
" />
<path d="M58826 37480
L58031 38070
" />
<path d="M60366 37480
L58826 37480
" />
<path d="M60826 37007
L60366 37480
" />
<path d="M61570 37007
L60826 37007
" />
<path d="M61570 36377
L61570 37007
" />
<path d="M60629 36377
L61570 36377
" />
<path d="M60066 36933
L60629 36377
" />
<path d="M59374 36933
L60066 36933
" />
<path d="M60905 36062
L61456 36062
" />
<path d="M60905 35748
L61456 35748
" />
<path d="M56909 36850
L56909 36311
" />
<path d="M57188 37129
L56909 36850
" />
<path d="M57622 37129
L57188 37129
" />
<path d="M57811 36940
L57622 37129
" />
<path d="M58023 39094
L56137 39094
" />
<path d="M58212 40078
L58212 39271
" />
<path d="M61456 37322
L60905 37322
" />
<path d="M60905 37637
L61456 37637
" />
<path d="M60779 38582
L61377 38582
" />
<path d="M60779 38267
L62401 38267
" />
<path d="M60779 38917
L60779 38267
" />
<path d="M62633 39051
L62633 38503
" />
<path d="M62948 39685
L62948 39031
" />
<path d="M62633 39031
L62633 39685
" />
<path d="M63259 39031
L62633 39031
" />
<path d="M63262 39724
L63262 39031
" />
<path d="M63577 39724
L63262 39724
" />
<path d="M63577 39031
L63577 39724
" />
<path d="M64834 39031
L63577 39031
" />
<path d="M64837 39685
L64837 36389
" />
<path d="M59925 39196
L59925 39724
" />
<path d="M59625 39196
L59925 39196
" />
<path d="M59354 39019
L59625 39196
" />
<path d="M59271 39019
L59354 39019
" />
<path d="M59141 38275
L59141 38897
" />
<path d="M59692 38275
L59141 38275
" />
<path d="M59850 38917
L59850 38425
" />
<path d="M61476 38917
L59850 38917
" />
<path d="M61653 38736
L61476 38917
" />
<path d="M62318 38736
L61653 38736
" />
<path d="M62318 39724
L62318 38736
" />
<path d="M59169 39511
L59169 39724
" />
<path d="M58811 39153
L59169 39511
" />
<path d="M58661 39153
L58811 39153
" />
<path d="M58866 37960
L58464 38267
" />
<path d="M59870 37960
L58866 37960
" />
<path d="M60043 38133
L59870 37960
" />
<path d="M60515 38133
L60043 38133
" />
<path d="M60692 37956
L60515 38133
" />
<path d="M61929 37952
L60692 37952
" />
<path d="M62086 36055
L62086 37755
" />
<path d="M61429 35393
L62086 36055
" />
<path d="M61751 35307
L61220 34775
" />
<path d="M62003 34645
L62003 35307
" />
<path d="M63262 34645
L63262 35307
" />
<path d="M63577 34645
L63577 35307
" />
<path d="M63892 34645
L63892 35307
" />
<path d="M64207 34645
L64207 35307
" />
<path d="M64522 34645
L64522 35307
" />
<path d="M64837 34645
L64837 35303
" />
<path d="M64837 35307
L64837 36062
" />
<path d="M62956 35307
L64837 35307
" />
<path d="M62948 34606
L62948 35307
" />
<path d="M62633 34606
L62948 34606
" />
<path d="M62633 35307
L62633 34606
" />
<path d="M62318 34645
L62318 35307
" />
<path d="M66047 36062
L64837 36062
" />
<path d="M66047 36370
L66047 36066
" />
<path d="M64837 36370
L66031 36370
" />
<path d="M65271 36692
L65944 36692
" />
<path d="M65263 37007
L65944 37007
" />
<path d="M65267 37322
L65944 37322
" />
<path d="M65271 37637
L65944 37637
" />
<path d="M65263 37952
L66043 37952
" />
<path d="M65275 38582
L66035 38582
" />
<path d="M65275 39248
L66692 39248
" />
<path d="M65275 38267
L65275 39248
" />
<path d="M66043 38267
L65275 38267
" />
<path d="M66685 37854
L66141 37854
" />
<path d="M67716 38551
L66181 38551
" />
<path d="M66688 37267
L66688 40078
" />
<path d="M67716 37267
L66688 37267
" />
<path d="M61744 39031
L61614 39196
" />
<path d="M62003 39031
L61744 39031
" />
<path d="M62318 39724
L59169 39724
" />
<path d="M60744 39196
L60744 39724
" />
<path d="M61614 39196
L60744 39196
" />
<path d="M58031 36417
L57818 36594
" />
<path d="M58031 35000
L58031 36417
" />
<path d="M59385 36933
L59385 36220
" />
<path d="M57818 36933
L59381 36933
" />
<path d="M57818 36594
L57818 36933
" />
<path d="M56645 35149
L56645 34251
" />
<path d="M56519 35275
L56645 35149
" />
<path d="M56145 35275
L56519 35275
" />
<path d="M55901 35519
L56145 35275
" />
<path d="M57610 36125
L57610 34251
" />
<path d="M57440 36299
L57610 36125
" />
<path d="M55901 36299
L57440 36299
" />
<path d="M55901 35519
L55901 38854
" />
<path d="M65240 35748
L67716 35748
" />
<path d="M65240 34251
L65240 35744
" />
</g>
<g style="fill:#000000; fill-opacity:0.0; 
stroke:#000000; stroke-width:39.3701; stroke-opacity:1; 
stroke-linecap:round; stroke-linejoin:round;">
<path d="M54437 40000
L54437 34330
" />
<path d="M67637 40000
L54437 40000
" />
<path d="M67637 34330
L67637 40000
" />
<path d="M54437 34330
L67637 34330
" />
</g> 
</svg>
